<svg width="312" height="108" viewBox="0 0 312 108" fill="none" xmlns="http://www.w3.org/2000/svg">
<path d="M171.758 46.4259H161.771V26.7939H143.924V46.4259H134V0H143.924V17.7057H161.771V0H171.758V46.4259Z" fill="black"/>
<path d="M208.484 17.9095C211.88 20.8742 213.58 25.0082 213.58 30.3117C213.58 35.6152 211.904 39.7395 208.552 42.68C205.2 45.6204 201.239 47.0906 196.664 47.0906C192.045 47.0906 188.041 45.6204 184.645 42.68C181.249 39.7395 179.549 35.6152 179.549 30.3117C179.549 25.0956 181.215 21.0052 184.543 18.0405C187.87 15.0806 191.821 13.5765 196.396 13.5328C201.059 13.4891 205.088 14.9448 208.484 17.9095ZM191.139 23.9456C189.585 25.4498 188.81 27.5702 188.81 30.3117C188.81 33.0532 189.566 35.1882 191.076 36.7118C192.586 38.2353 194.384 39.002 196.469 39.002C198.598 39.0457 200.44 38.2936 201.994 36.7457C203.548 35.1979 204.323 33.0532 204.323 30.3117C204.323 27.6139 203.568 25.5032 202.058 23.9796C200.547 22.456 198.749 21.6893 196.664 21.6893C194.535 21.6893 192.693 22.4414 191.139 23.9456Z" fill="black"/>
<path d="M218.306 36.6778H227.631C227.675 37.9151 228.206 38.8662 229.229 39.5309C230.252 40.1957 231.47 40.5062 232.893 40.4577C236.532 40.4577 238.374 39.2398 238.418 36.8088C238.418 36.1877 238.306 35.6831 238.086 35.2852C237.862 34.8874 237.477 34.5768 236.922 34.3585C236.366 34.1401 235.913 33.9945 235.558 33.9266C235.202 33.8587 234.627 33.7616 233.828 33.6258C228.854 32.961 225.458 32.1895 223.641 31.3064C220.532 29.8022 218.978 27.415 218.978 24.1446C218.978 20.6947 220.245 18.0745 222.773 16.284C225.302 14.4935 228.635 13.5959 232.761 13.5959C236.844 13.5959 240.23 14.4935 242.914 16.284C245.599 18.0745 246.856 20.5831 246.676 23.8098H237.887C237.843 22.7035 237.355 21.8883 236.42 21.3546C235.489 20.8257 234.31 20.5588 232.893 20.5588C231.514 20.5588 230.349 20.8548 229.395 21.4565C228.44 22.0533 227.962 22.8587 227.962 23.8777C227.962 24.6298 228.23 25.2266 228.761 25.6682C229.292 26.1097 229.838 26.3863 230.393 26.4979C230.949 26.6095 231.67 26.7065 232.557 26.7987C237.482 27.3761 240.815 28.0166 242.544 28.7202C246.096 30.2244 247.825 32.9222 247.738 36.8137C247.694 39.2446 246.948 41.268 245.506 42.8838C244.064 44.4996 242.31 45.635 240.245 46.2997C238.179 46.9645 235.86 47.2944 233.287 47.2944C223.568 47.2896 218.574 43.7523 218.306 36.6778Z" fill="black"/>
<path d="M266.588 4.57562V14.5226H277.043V21.4856H266.588V33.8878C266.588 35.9645 267.129 37.5269 268.22 38.5653C269.306 39.6037 270.651 40.0695 272.249 39.9579C273.847 39.8463 275.577 39.5066 277.443 38.9292L278.31 45.9601C275.426 46.7558 272.77 47.1731 270.354 47.2216C267.932 47.2653 265.735 46.9014 263.762 46.125C261.784 45.3535 260.244 43.9464 259.133 41.9133C258.023 39.8802 257.467 37.2698 257.467 34.0867V21.4856L251.406 20.8887V14.5226H258.135L259.133 4.57562H266.588Z" fill="black"/>
<path d="M156.377 81.6618L175.091 59.5746H178.686V106.131H168.699V80.997L156.977 95.5876H155.71L143.988 80.997V106.131H134V59.5746H137.664L156.377 81.6618Z" fill="black"/>
<path d="M209.585 74.1651H218.905V96.5144C218.905 98.1496 219.071 99.2219 219.407 99.7314C219.738 100.241 220.571 100.45 221.906 100.362L221.974 106.131C220.688 106.442 219.431 106.641 218.213 106.728C216.99 106.816 215.748 106.762 214.486 106.563C213.219 106.364 212.201 105.835 211.422 104.972C210.647 104.108 210.257 102.948 210.257 101.488C209.414 103.21 208.05 104.496 206.16 105.336C204.269 106.175 202.218 106.597 200.002 106.597C192.055 106.597 188.085 101.891 188.085 92.4725V74.17H197.473V92.4725C197.385 94.6414 197.863 96.3203 198.905 97.5139C199.948 98.7076 201.312 99.3044 203.003 99.3044C204.913 99.3481 206.486 98.7173 207.729 97.412C208.971 96.1068 209.595 94.394 209.595 92.2736V74.1651H209.585Z" fill="black"/>
<path d="M226.695 96.3834H236.02C236.064 97.6207 236.595 98.5717 237.619 99.2365C238.637 99.9012 239.86 100.212 241.282 100.163C244.922 100.163 246.763 98.9453 246.807 96.5144C246.807 95.8933 246.695 95.3887 246.476 94.9908C246.252 94.5929 245.867 94.2824 245.311 94.064C244.756 93.8457 244.303 93.7001 243.947 93.6322C243.592 93.5643 243.017 93.4672 242.218 93.3313C237.243 92.6666 233.848 91.8951 232.03 91.012C228.922 89.5078 227.368 87.1205 227.368 83.8501C227.368 80.4002 228.634 77.78 231.163 75.9896C233.692 74.1991 237.024 73.3015 241.151 73.3015C245.234 73.3015 248.62 74.1991 251.304 75.9896C253.989 77.78 255.246 80.2886 255.065 83.5153H246.276C246.232 82.409 245.745 81.5939 244.81 81.0601C243.879 80.5312 242.7 80.2644 241.277 80.2644C239.899 80.2644 238.734 80.5603 237.779 81.162C236.824 81.7588 236.347 82.5643 236.347 83.5833C236.347 84.3354 236.615 84.9322 237.146 85.3737C237.677 85.8153 238.223 86.0919 238.778 86.2035C239.333 86.3151 240.055 86.4121 240.941 86.5043C245.867 87.0817 249.199 87.7222 250.929 88.4258C254.481 89.93 256.21 92.6278 256.123 96.5192C256.079 98.9502 255.333 100.974 253.891 102.589C252.449 104.205 250.695 105.341 248.629 106.005C246.564 106.67 244.244 107 241.672 107C231.957 106.995 226.963 103.458 226.695 96.3834Z" fill="black"/>
<path d="M263.689 68.9587C262.559 68.0077 261.989 66.6685 261.989 64.946C261.989 63.2234 262.544 61.8939 263.655 60.9672C264.766 60.0404 266.076 59.5988 267.582 59.6425C269.004 59.6862 270.247 60.1714 271.309 61.103C272.376 62.0298 272.907 63.3156 272.907 64.9508C272.907 66.6297 272.385 67.9349 271.343 68.8617C270.3 69.7885 269.068 70.2785 267.645 70.3222C266.14 70.361 264.819 69.9098 263.689 68.9587ZM272.113 74.563V106.131H262.792V74.563H272.113Z" fill="black"/>
<path d="M311.868 85.7037H303.011C302.48 84.2432 301.603 83.1417 300.38 82.3896C299.157 81.6375 297.793 81.2833 296.283 81.327C294.105 81.3707 292.21 82.1567 290.587 83.6803C288.965 85.2039 288.156 87.3195 288.156 90.0124C288.156 92.7539 288.965 94.9083 290.587 96.4804C292.21 98.0525 294.105 98.8337 296.283 98.8337C297.837 98.8337 299.235 98.4165 300.478 97.5722C301.72 96.7327 302.607 95.4954 303.143 93.8602H312C311.376 97.9264 309.544 101.09 306.504 103.346C303.464 105.603 299.966 106.753 296.015 106.796C291.396 106.84 287.391 105.379 283.996 102.42C280.6 99.4597 278.899 95.3207 278.899 90.0173C278.899 84.7575 280.609 80.6331 284.025 77.649C287.445 74.6649 291.459 73.1704 296.078 73.1704C299.942 73.1704 303.357 74.267 306.334 76.4554C309.311 78.6437 311.157 81.7249 311.868 85.7037Z" fill="black"/>
<path d="M60.4541 98.0692H52.8719V83.1082H39.3238V98.0692H31.7897V62.6844H39.3238V76.1807H52.8719V62.6844H60.4541V98.0692Z" fill="white"/>
<path d="M98.8792 98.0692H91.297V78.9103L82.3981 90.032H81.4402L72.5413 78.9103V98.0692H64.9591V62.5808H67.7405L81.9432 79.417L96.1497 62.5808H98.8792V98.0692Z" fill="white"/>
<path d="M0 8.75466V99.249C0 104.079 3.92055 108 8.75466 108H99.249C104.083 108 108.004 104.079 108.004 99.2453V8.75466C108 3.92055 104.079 0 99.2453 0H8.75466C3.92055 0 0 3.92055 0 8.75466ZM60.4541 98.0692H52.8719V83.1082H39.3238V98.0692H31.7897V62.6844H39.3238V76.1807H52.8719V62.6844H60.4541V98.0692ZM98.8792 98.0692H91.297V78.9103L82.3981 90.0321H81.4401L72.5412 78.9103V98.0692H64.959V62.5808H67.7404L81.9432 79.417L96.1496 62.5808H98.8792V98.0692Z" fill="#FF5019"/>
</svg>
