<svg width="169" height="169" viewBox="0 0 169 169" fill="none" xmlns="http://www.w3.org/2000/svg">
<g clip-path="url(#clip0_123_22)">
<path d="M94.5994 153.46H82.7347V130.049H61.5345V153.46H49.745V98.0895H61.5345V119.209H82.7347V98.0895H94.5994V153.46Z" fill="white"/>
<path d="M154.728 153.46H142.863V123.48L128.938 140.883H127.439L113.514 123.48V153.46H101.649V97.9274H106.001L128.226 124.273L150.456 97.9274H154.728V153.46Z" fill="white"/>
<path d="M0 13.6994V155.306C0 162.865 6.13493 169 13.6994 169H155.306C162.871 169 169.006 162.865 169.006 155.301V13.6994C169 6.13493 162.865 0 155.301 0H13.6994C6.13493 0 0 6.13493 0 13.6994ZM94.5995 153.46H82.7348V130.049H61.5345V153.46H49.745V98.0894H61.5345V119.209H82.7348V98.0894H94.5995V153.46ZM154.728 153.46H142.863V123.48L128.938 140.883H127.439L113.514 123.48V153.46H101.649V97.9274H106.001L128.226 124.273L150.456 97.9274H154.728V153.46Z" fill="#4a6fda"/>
</g>
<defs>
<clipPath id="clip0_123_22">
<rect width="169" height="169" fill="white"/>
</clipPath>
</defs>
</svg>
